ISO-10303-21;
HEADER;
FILE_DESCRIPTION(('ViewDefinition [CoordinationView]'),'2;1');
FILE_NAME('ObraHub-Ejemplo-Estructural.ifc','2026-08-26',('ObraHub'),('Cratere SAS'),'ObraHubGen 2.0','ObraHub','');
FILE_SCHEMA(('IFC4'));
ENDSEC;
DATA;
#1= IFCPROJECT('0x2vPGyWQRrbBWI2X0001',#2,'Proyecto Ejemplo Estructural',$,$,$,$,(#11),#5);
#2= IFCOWNERHISTORY(#3,#4,$,.ADDED.,$,$,$,1770000000);
#3= IFCPERSONANDORGANIZATION(#7,#8,$);
#4= IFCAPPLICATION(#9,'2.0','ObraHub Gen','OH');
#5= IFCUNITASSIGNMENT((#6,#10));
#6= IFCSIUNIT(*,.LENGTHUNIT.,$,.METRE.);
#10= IFCSIUNIT(*,.AREAUNIT.,$,.SQUARE_METRE.);
#7= IFCPERSON($,'Pineda','Diego',$,$,$,$,$);
#8= IFCORGANIZATION($,'Cratere SAS',$,$,$);
#9= IFCORGANIZATION($,'ObraHub',$,$,$);
#11= IFCGEOMETRICREPRESENTATIONCONTEXT($,'Model',3,1.E-05,#12,#13);
#12= IFCAXIS2PLACEMENT3D(#14,$,$);
#13= IFCDIRECTION((0.,1.));
#14= IFCCARTESIANPOINT((0.,0.,0.));
#15= IFCDIRECTION((1.,0.));
#16= IFCDIRECTION((0.,0.,1.));
#17= IFCDIRECTION((1.,0.,0.));
#50= IFCGEOMETRICREPRESENTATIONSUBCONTEXT('Body','Model',*,*,*,*,#11,$,.MODEL_VIEW.,$);
#20= IFCSITE('1x2vPGyWQRrbBWI2X0002',#2,'Terreno',$,$,#21,$,$,.ELEMENT.,$,$,$,$,$);
#21= IFCLOCALPLACEMENT($,#22);
#22= IFCAXIS2PLACEMENT3D(#14,#16,#17);
#30= IFCBUILDING('2x2vPGyWQRrbBWI2X0003',#2,'Edificio Ejemplo',$,$,#31,$,$,.ELEMENT.,$,$,$);
#31= IFCLOCALPLACEMENT(#21,#22);
#40= IFCBUILDINGSTOREY('3x2vPGyWQRrbBWI2X0004',#2,'Piso 1 - NPT 0.00',$,$,#41,$,$,.ELEMENT.,0.);
#41= IFCLOCALPLACEMENT(#31,#22);
#60= IFCRECTANGLEPROFILEDEF(.AREA.,$,#10060,6.15,0.15);
#30060= IFCCARTESIANPOINT((3.075,0.075));
#10060= IFCAXIS2PLACEMENT2D(#30060,#15);
#64= IFCRECTANGLEPROFILEDEF(.AREA.,$,#10064,6.15,0.15);
#30064= IFCCARTESIANPOINT((3.075,0.075));
#10064= IFCAXIS2PLACEMENT2D(#30064,#15);
#68= IFCRECTANGLEPROFILEDEF(.AREA.,$,#10068,0.15,4.15);
#30068= IFCCARTESIANPOINT((0.075,2.075));
#10068= IFCAXIS2PLACEMENT2D(#30068,#15);
#72= IFCRECTANGLEPROFILEDEF(.AREA.,$,#10072,0.15,4.15);
#30072= IFCCARTESIANPOINT((0.075,2.075));
#10072= IFCAXIS2PLACEMENT2D(#30072,#15);
#80= IFCRECTANGLEPROFILEDEF(.AREA.,$,#10080,6.3,4.3);
#30080= IFCCARTESIANPOINT((3.15,2.15));
#10080= IFCAXIS2PLACEMENT2D(#30080,#15);
#105= IFCRECTANGLEPROFILEDEF(.AREA.,$,#100105,6.3,0.3);
#300105= IFCCARTESIANPOINT((3.15,0.15));
#100105= IFCAXIS2PLACEMENT2D(#300105,#15);
#9110= IFCEXTRUDEDAREASOLID(#60,#2009110,#16,2.5);
#4009110= IFCCARTESIANPOINT((0,3.925,0));
#2009110= IFCAXIS2PLACEMENT3D(#4009110,#16,#17);
#9210= IFCSHAPEREPRESENTATION(#50,'Body','SweptSolid',(#9110));
#9310= IFCPRODUCTDEFINITIONSHAPE($,$,(#9210));
#9410= IFCLOCALPLACEMENT(#41,#22);
#110= IFCWALLSTANDARDCASE('0000000000110GyWQRrbBWI2X',#2,'Muro-Norte-Mamposteria-Confinada',$,$,#9410,#9310,$);
#9111= IFCEXTRUDEDAREASOLID(#64,#2009111,#16,2.5);
#4009111= IFCCARTESIANPOINT((0,-0.075,0));
#2009111= IFCAXIS2PLACEMENT3D(#4009111,#16,#17);
#9211= IFCSHAPEREPRESENTATION(#50,'Body','SweptSolid',(#9111));
#9311= IFCPRODUCTDEFINITIONSHAPE($,$,(#9211));
#9411= IFCLOCALPLACEMENT(#41,#22);
#111= IFCWALLSTANDARDCASE('0000000000111GyWQRrbBWI2X',#2,'Muro-Sur-Mamposteria-Confinada',$,$,#9411,#9311,$);
#9112= IFCEXTRUDEDAREASOLID(#68,#2009112,#16,2.5);
#4009112= IFCCARTESIANPOINT((5.925,0,0));
#2009112= IFCAXIS2PLACEMENT3D(#4009112,#16,#17);
#9212= IFCSHAPEREPRESENTATION(#50,'Body','SweptSolid',(#9112));
#9312= IFCPRODUCTDEFINITIONSHAPE($,$,(#9212));
#9412= IFCLOCALPLACEMENT(#41,#22);
#112= IFCWALLSTANDARDCASE('0000000000112GyWQRrbBWI2X',#2,'Muro-Este-Mamposteria-Confinada',$,$,#9412,#9312,$);
#9113= IFCEXTRUDEDAREASOLID(#72,#2009113,#16,2.5);
#4009113= IFCCARTESIANPOINT((-0.075,0,0));
#2009113= IFCAXIS2PLACEMENT3D(#4009113,#16,#17);
#9213= IFCSHAPEREPRESENTATION(#50,'Body','SweptSolid',(#9113));
#9313= IFCPRODUCTDEFINITIONSHAPE($,$,(#9213));
#9413= IFCLOCALPLACEMENT(#41,#22);
#113= IFCWALLSTANDARDCASE('0000000000113GyWQRrbBWI2X',#2,'Muro-Oeste-Mamposteria-Confinada',$,$,#9413,#9313,$);
#9114= IFCEXTRUDEDAREASOLID(#80,#2009114,#16,0.12);
#4009114= IFCCARTESIANPOINT((-0.15,-0.15,-0.12));
#2009114= IFCAXIS2PLACEMENT3D(#4009114,#16,#17);
#9214= IFCSHAPEREPRESENTATION(#50,'Body','SweptSolid',(#9114));
#9314= IFCPRODUCTDEFINITIONSHAPE($,$,(#9214));
#9414= IFCLOCALPLACEMENT(#41,#22);
#114= IFCSLAB('0000000000114GyWQRrbBWI2X',#2,'Losa-Fondo-Concreto-3000psi',$,$,#9414,#9314,$,.FLOOR.);
#9130= IFCEXTRUDEDAREASOLID(#90,#2009130,#16,2.5);
#4009130= IFCCARTESIANPOINT((0.0,0.0,0));
#2009130= IFCAXIS2PLACEMENT3D(#4009130,#16,#17);
#9230= IFCSHAPEREPRESENTATION(#50,'Body','SweptSolid',(#9130));
#9330= IFCPRODUCTDEFINITIONSHAPE($,$,(#9230));
#9430= IFCLOCALPLACEMENT(#41,#22);
#130= IFCCOLUMN('0000000000130GyWQRrbBWI2X',#2,'Columna-C1-Concreto-4000psi',$,$,#9430,#9330,$);
#90= IFCRECTANGLEPROFILEDEF(.AREA.,$,#10090,0.3,0.3); #30090= IFCCARTESIANPOINT((0.15,0.15)); #10090= IFCAXIS2PLACEMENT2D(#30090,#15);
#9131= IFCEXTRUDEDAREASOLID(#91,#2009131,#16,2.5);
#4009131= IFCCARTESIANPOINT((5.7,0.0,0));
#2009131= IFCAXIS2PLACEMENT3D(#4009131,#16,#17);
#9231= IFCSHAPEREPRESENTATION(#50,'Body','SweptSolid',(#9131));
#9331= IFCPRODUCTDEFINITIONSHAPE($,$,(#9231));
#9431= IFCLOCALPLACEMENT(#41,#22);
#131= IFCCOLUMN('0000000000131GyWQRrbBWI2X',#2,'Columna-C2-Concreto-4000psi',$,$,#9431,#9331,$);
#91= IFCRECTANGLEPROFILEDEF(.AREA.,$,#10091,0.3,0.3); #30091= IFCCARTESIANPOINT((0.15,0.15)); #10091= IFCAXIS2PLACEMENT2D(#30091,#15);
#9132= IFCEXTRUDEDAREASOLID(#92,#2009132,#16,2.5);
#4009132= IFCCARTESIANPOINT((0.0,3.7,0));
#2009132= IFCAXIS2PLACEMENT3D(#4009132,#16,#17);
#9232= IFCSHAPEREPRESENTATION(#50,'Body','SweptSolid',(#9132));
#9332= IFCPRODUCTDEFINITIONSHAPE($,$,(#9232));
#9432= IFCLOCALPLACEMENT(#41,#22);
#132= IFCCOLUMN('0000000000132GyWQRrbBWI2X',#2,'Columna-C3-Concreto-4000psi',$,$,#9432,#9332,$);
#92= IFCRECTANGLEPROFILEDEF(.AREA.,$,#10092,0.3,0.3); #30092= IFCCARTESIANPOINT((0.15,0.15)); #10092= IFCAXIS2PLACEMENT2D(#30092,#15);
#9133= IFCEXTRUDEDAREASOLID(#93,#2009133,#16,2.5);
#4009133= IFCCARTESIANPOINT((5.7,3.7,0));
#2009133= IFCAXIS2PLACEMENT3D(#4009133,#16,#17);
#9233= IFCSHAPEREPRESENTATION(#50,'Body','SweptSolid',(#9133));
#9333= IFCPRODUCTDEFINITIONSHAPE($,$,(#9233));
#9433= IFCLOCALPLACEMENT(#41,#22);
#133= IFCCOLUMN('0000000000133GyWQRrbBWI2X',#2,'Columna-C4-Concreto-4000psi',$,$,#9433,#9333,$);
#93= IFCRECTANGLEPROFILEDEF(.AREA.,$,#10093,0.3,0.3); #30093= IFCCARTESIANPOINT((0.15,0.15)); #10093= IFCAXIS2PLACEMENT2D(#30093,#15);
#9150= IFCEXTRUDEDAREASOLID(#105,#2009150,#16,0.3);
#4009150= IFCCARTESIANPOINT((-0.15,3.7,2.5));
#2009150= IFCAXIS2PLACEMENT3D(#4009150,#16,#17);
#9250= IFCSHAPEREPRESENTATION(#50,'Body','SweptSolid',(#9150));
#9350= IFCPRODUCTDEFINITIONSHAPE($,$,(#9250));
#9450= IFCLOCALPLACEMENT(#41,#22);
#150= IFCBEAM('0000000000150GyWQRrbBWI2X',#2,'Viga-Fachada-C1-Concreto',$,$,#9450,#9350,$);
#160= IFCRELAGGREGATES('4x2vPGyWQRrbBWI2X0010',#2,$,$,#1,(#20));
#161= IFCRELAGGREGATES('4x2vPGyWQRrbBWI2X0011',#2,$,$,#20,(#30));
#162= IFCRELAGGREGATES('4x2vPGyWQRrbBWI2X0012',#2,$,$,#30,(#40));
#170= IFCRELCONTAINEDINSPATIALSTRUCTURE('5x2vPGyWQRrbBWI2X0013',#2,$,$,(#110,#111,#112,#113,#114,#130,#131,#132,#133,#150),#40);
ENDSEC;
END-ISO-10303-21;